<svg xmlns="http://www.w3.org/2000/svg" width="32" height="32" viewBox="0 0 32 32" shape-rendering="crispEdges"><rect width="32" height="32" fill="#ffffff"/><rect x="5" y="10" width="2.6" height="2.6" fill="#000000"/><rect x="7" y="10" width="2.6" height="2.6" fill="#000000"/><rect x="23" y="10" width="2.6" height="2.6" fill="#000000"/><rect x="25" y="10" width="2.6" height="2.6" fill="#000000"/><rect x="7" y="12" width="2.6" height="2.6" fill="#000000"/><rect x="9" y="12" width="2.6" height="2.6" fill="#000000"/><rect x="21" y="12" width="2.6" height="2.6" fill="#000000"/><rect x="23" y="12" width="2.6" height="2.6" fill="#000000"/><rect x="9" y="14" width="2.6" height="2.6" fill="#000000"/><rect x="11" y="14" width="2.6" height="2.6" fill="#000000"/><rect x="15" y="14" width="2.6" height="2.6" fill="#000000"/><rect x="19" y="14" width="2.6" height="2.6" fill="#000000"/><rect x="21" y="14" width="2.6" height="2.6" fill="#000000"/><rect x="11" y="16" width="2.6" height="2.6" fill="#000000"/><rect x="13" y="16" width="2.6" height="2.6" fill="#000000"/><rect x="15" y="16" width="2.6" height="2.6" fill="#000000"/><rect x="17" y="16" width="2.6" height="2.6" fill="#000000"/><rect x="19" y="16" width="2.6" height="2.6" fill="#000000"/><rect x="13" y="18" width="2.6" height="2.6" fill="#000000"/><rect x="15" y="18" width="2.6" height="2.6" fill="#000000"/><rect x="17" y="18" width="2.6" height="2.6" fill="#000000"/><rect x="15" y="20" width="2.6" height="2.6" fill="#000000"/></svg>